<?xml version="1.0" encoding="UTF-8"?>
<svg id="Layer_2" data-name="Layer 2" xmlns="http://www.w3.org/2000/svg" viewBox="0 0 440.77 133.98">
  <defs>
    <style>
      .cls-1 {
        font-size: 61.26px;
        letter-spacing: .1em;
      }

      .cls-1, .cls-2 {
        fill: #231f20;
        font-family: CenturyGothic, 'Century Gothic';
      }

      .cls-3 {
        fill: #ced1d9;
      }

      .cls-3, .cls-4, .cls-5, .cls-6 {
        stroke: #231f20;
      }

      .cls-3, .cls-5, .cls-6 {
        stroke-miterlimit: 1;
        stroke-width: .71px;
      }

      .cls-2 {
        font-size: 57.24px;
        letter-spacing: .3em;
      }

      .cls-4 {
        stroke-miterlimit: 3.86;
        stroke-width: .57px;
      }

      .cls-4, .cls-5 {
        fill: #94a7bd;
      }

      .cls-6 {
        fill: #b0bdcc;
      }
    </style>
  </defs>
  <g id="Layer_1-2" data-name="Layer 1">
    <path class="cls-5" d="M81.5,16.42l21.79,46.76c1.84,3.95.62,8.42-2.72,9.97-3.34,1.56-7.54-.38-9.38-4.33l-12.86-27.6-17.05,29.52h14.4c4.36,0,7.89,2.99,7.89,6.68s-3.53,6.68-7.89,6.68h-22.11l-12.66,21.92c-6.2,10.74-19.61,14.61-29.95,8.64-10.34-5.97-13.69-19.52-7.49-30.26L43.05,15.86c6.2-10.74,19.61-14.61,29.95-8.64,3.52,2.03,6.23,4.94,8.03,8.33.17.28.32.57.46.87h0Z"/>
    <path class="cls-6" d="M141.39,70.75h15.31c4.36,0,7.89,2.99,7.89,6.68s-3.53,6.68-7.89,6.68h-23.02l-12.66,21.92c-6.2,10.74-19.61,14.61-29.95,8.64-10.34-5.97-13.69-19.52-7.49-30.26L123.16,15.86c6.2-10.74,19.61-14.61,29.95-8.64,3.52,2.03,6.23,4.94,8.03,8.33.17.28.32.57.46.87l21.79,46.76c1.84,3.95.62,8.42-2.72,9.97-3.34,1.56-7.54-.38-9.38-4.33l-12.86-27.6-17.05,29.52h0Z"/>
    <path class="cls-3" d="M202.02,106.07c-6.21,10.74-19.61,14.61-29.95,8.64h0c-10.34-5.97-13.69-19.51-7.49-30.26L204.16,15.91c6.2-10.74,19.61-14.61,29.95-8.64h0c10.34,5.97,13.69,19.51,7.49,30.26l-39.59,68.55h0Z"/>
    <path class="cls-4" d="M234.83.26c7.6,3.43,13.66,10.11,15.99,18.8,1.18,4.39,1.27,8.82.45,13-2.05-12.97-7.59-24.17-16.44-31.8h0ZM200.18,8.98c2.68-3.5,6.19-6.41,10.32-8.4,4.59.77,8.97,2.3,13.05,4.66,13.07,7.54,20.44,22.07,21.79,39.46-2.12,2.61-4.71,4.86-7.68,6.61-.73-16.64-7.37-30.6-19.61-37.67-5.44-3.14-11.5-4.64-17.87-4.66h0ZM212.94,53.48c-6.65-2.49-12.29-7.4-15.61-13.96,1.54.55,3.02,1.23,4.45,2.06,4.79,2.77,8.52,6.86,11.16,11.9h0ZM194.27,28.17c-.19-3.12.15-6.2.94-9.13,6.11.01,11.93,1.44,17.14,4.45,10.37,5.99,16.54,17.18,18.31,30.78l-.2.05c-2.41.64-4.83.96-7.21.99-2.73-10.05-8.31-18.22-16.62-23.02-3.83-2.21-8-3.56-12.36-4.12h0Z"/>
    <text class="cls-1" transform="translate(254.41 117.71) scale(.81 .87) skewX(-31.73)"><tspan x="0" y="0">EduHr</tspan></text>
    <text class="cls-2" transform="translate(208.21 117.31) scale(.81 .87) skewX(-31.73)"><tspan x="0" y="0">@</tspan></text>
  </g>
</svg>