<?xml version="1.0" encoding="UTF-8"?>
<svg id="Layer_1" xmlns="http://www.w3.org/2000/svg" version="1.1" viewBox="0 0 133.3 85">
  <!-- Generator: Adobe Illustrator 29.1.0, SVG Export Plug-In . SVG Version: 2.1.0 Build 142)  -->
  <defs>
    <style>
      .st0 {
        stroke: #fff;
        stroke-width: 2.1px;
      }

      .st0, .st1, .st2 {
        fill: #d51f36;
      }

      .st0, .st3, .st2 {
        stroke-miterlimit: 10;
      }

      .st3 {
        fill: none;
        stroke-width: 1.7px;
      }

      .st3, .st2 {
        stroke: #d51f36;
      }

      .st2 {
        stroke-width: 3.7px;
      }
    </style>
  </defs>
  <rect class="st3" x="1.9" y="1.4" width="129.5" height="82.2" rx="7.2" ry="7.2"/>
  <g>
    <g>
      <path class="st1" d="M55,46.1c0-3.8-3.1-6.9-6.9-6.9h-24.5c-3.8,0-6.9,3.1-6.9,6.9v25.1h38.2v-25.1Z"/>
      <path class="st0" d="M35.9,13.8c-8,0-14.6,6.5-14.6,14.6s6.5,14.6,14.6,14.6,14.6-6.5,14.6-14.6-6.5-14.6-14.6-14.6Z"/>
    </g>
    <path class="st2" d="M83.6,52.2h-8.8v-3.4h9.2l1.7-11.9h-8.8v-3.4h9.2l2.5-17.4h3.9l-2.5,17.4h10.9l2.5-17.4h3.9l-2.5,17.4h8.8v3.4h-9.2l-1.7,11.9h8.8v3.4h-9.2l-2.4,17.4h-3.9l2.4-17.4h-10.9l-2.4,17.4h-3.9l2.4-17.4ZM100.5,37h-10.9l-1.7,11.9h10.9l1.7-11.9Z"/>
  </g>
</svg>