<?xml version="1.0" encoding="UTF-8"?>
<svg id="Layer_1" xmlns="http://www.w3.org/2000/svg" version="1.1" viewBox="0 0 133.3 85">
  <!-- Generator: Adobe Illustrator 29.1.0, SVG Export Plug-In . SVG Version: 2.1.0 Build 142)  -->
  <defs>
    <style>
      .st0 {
        fill: none;
        stroke: #d51f36;
        stroke-miterlimit: 10;
        stroke-width: 1.7px;
      }

      .st1 {
        fill: #fff;
      }

      .st2 {
        fill: #d51f36;
      }
    </style>
  </defs>
  <rect class="st0" x="1.9" y="1.4" width="129.5" height="82.2" rx="7.2" ry="7.2"/>
  <g>
    <path class="st2" d="M93.8,27.2c0-2.9-2.4-5.3-5.3-5.3h-4v-3.6c0-1.6-1.3-3-3-3h-1.9c-1.6,0-3,1.3-3,3v3.6h-20v-3.6c0-1.6-1.3-3-3-3h-1.9c-1.6,0-3,1.3-3,3v3.6h-4c-2.9,0-5.3,2.4-5.3,5.3v1.1h54.2v-1.1h0Z"/>
    <path class="st2" d="M39.5,64.4c0,2.9,2.4,5.3,5.3,5.3h43.6c2.9,0,5.3-2.4,5.3-5.3V30.7h-54.2v33.7Z"/>
    <rect class="st1" x="39.5" y="28.3" width="54.2" height="2.4"/>
    <rect class="st1" x="46.6" y="37.8" width="9.5" height="9.5"/>
    <rect class="st1" x="62.1" y="37.8" width="9.5" height="9.5"/>
    <rect class="st1" x="77.2" y="37.8" width="9.5" height="9.5"/>
    <rect class="st1" x="46.8" y="51.1" width="9.5" height="9.5"/>
    <rect class="st1" x="62.3" y="51.1" width="9.5" height="9.5"/>
    <rect class="st1" x="77.4" y="51.1" width="9.5" height="9.5"/>
  </g>
</svg>