<?xml version="1.0" encoding="UTF-8"?>
<svg id="Layer_1" xmlns="http://www.w3.org/2000/svg" version="1.1" viewBox="0 0 133.3 85">
  <!-- Generator: Adobe Illustrator 29.1.0, SVG Export Plug-In . SVG Version: 2.1.0 Build 142)  -->
  <defs>
    <style>
      .st0 {
        fill: #d51f36;
        stroke-width: 2.4px;
      }

      .st0, .st1 {
        stroke-linecap: round;
      }

      .st0, .st2 {
        stroke: #d51f36;
        stroke-miterlimit: 10;
      }

      .st3 {
        fill: #fff;
      }

      .st1 {
        stroke: #fff;
        stroke-linejoin: round;
        stroke-width: 1.8px;
      }

      .st1, .st2 {
        fill: none;
      }

      .st2 {
        stroke-width: 1.7px;
      }
    </style>
  </defs>
  <g>
    <path class="st0" d="M66.5,48.7c-2.5,0-4.9-1-6.7-2.8l-25.8-25.8c-.4.5-.7,1.1-.7,1.8v42.8c0,1.5,1.2,2.8,2.8,2.8h61.7c1.5,0,2.8-1.2,2.8-2.8V21.9c0-.9-.5-1.7-1.2-2.2l-26.2,26.2c-1.8,1.8-4.2,2.8-6.7,2.8Z"/>
    <path class="st0" d="M71.9,44.6l25.5-25.5h-61.3c-.1,0-.3,0-.4,0l25.4,25.4c2.9,2.9,7.9,2.9,10.8,0Z"/>
    <path class="st3" d="M98.9,17.5l-27,27.1c-2.9,2.9-7.9,2.9-10.8,0l-27.1-27.1c-.7.1-1.3.4-1.7.9l27.5,27.5c1.8,1.8,4.2,2.8,6.7,2.8s4.9-1,6.7-2.8l27.7-27.8c-.5-.3-1-.6-1.6-.6h-.4Z"/>
    <line class="st1" x1="60.4" y1="45.3" x2="33.3" y2="67.5"/>
    <line class="st1" x1="73.4" y1="45.3" x2="100.6" y2="67.5"/>
  </g>
  <rect class="st2" x="1.9" y="1.4" width="129.5" height="82.2" rx="7.2" ry="7.2"/>
</svg>