<svg width="157" height="122" viewBox="0 0 157 122" fill="none" xmlns="http://www.w3.org/2000/svg">
<path fill-rule="evenodd" clip-rule="evenodd" d="M156.263 23.111C156.263 10.347 145.916 0 133.153 0C120.388 0 110.041 10.347 110.041 23.111C110.041 35.875 120.388 46.222 133.153 46.222C145.916 46.222 156.263 35.875 156.263 23.111Z" fill="#FAA61A"/>
<path fill-rule="evenodd" clip-rule="evenodd" d="M82.1824 103.174C82.1824 93.1608 74.0654 85.0438 64.0514 85.0438C54.0384 85.0438 45.9214 93.1608 45.9214 103.174C45.9214 113.187 54.0384 121.304 64.0514 121.304C74.0654 121.304 82.1824 113.187 82.1824 103.174Z" fill="#A7A9AC"/>
<path fill-rule="evenodd" clip-rule="evenodd" d="M97.6843 79.2881C97.6843 75.4831 94.6003 72.3991 90.7953 72.3991C86.9903 72.3991 83.9053 75.4831 83.9053 79.2881C83.9053 83.0931 86.9903 86.1771 90.7953 86.1771C94.6003 86.1771 97.6843 83.0931 97.6843 79.2881Z" fill="#FAA61A"/>
<path fill-rule="evenodd" clip-rule="evenodd" d="M13.779 79.2881C13.779 75.4831 10.695 72.3991 6.89 72.3991C3.085 72.3991 0 75.4831 0 79.2881C0 83.0931 3.085 86.1771 6.89 86.1771C10.695 86.1771 13.779 83.0931 13.779 79.2881Z" fill="#4CC0AD"/>
</svg>
