<?xml version="1.0" encoding="UTF-8"?><svg id="Layer_1" xmlns="http://www.w3.org/2000/svg" viewBox="0 0 167.84 56.69"><defs><style>.cls-1{fill:#231f20;}.cls-1,.cls-2{stroke-width:0px;}.cls-2{fill:#d71635;}</style></defs><path class="cls-2" d="m39.96,28.4s0,0,0-.01c0,0,0,0,0,.01h.01Z"/><path class="cls-1" d="m87.41,29.6c-1.14-1.12-3.23-2.04-6.22-2.75l-4.18-.98c-1.51-.34-2.56-.74-3.1-1.19-.52-.44-.78-1.02-.78-1.8,0-1.11.41-1.92,1.27-2.49.87-.58,2.17-.88,3.86-.88s3.05.36,4.03,1.08c.85.62,1.35,1.44,1.53,2.51.06.38.45.69.84.69h3.6c.11,0,.2-.09.2-.2v-.1c0-2.45-.94-4.43-2.79-5.89-1.84-1.44-4.33-2.18-7.42-2.18s-5.44.69-7.19,2.05c-1.76,1.37-2.66,3.24-2.66,5.57,0,2.04.56,3.64,1.66,4.76,1.09,1.1,3.03,1.99,5.78,2.66l4.83,1.25c1.5.36,2.51.78,3.01,1.26.49.46.73,1.14.73,2.02,0,1.2-.5,2.12-1.52,2.82-1.03.7-2.48,1.06-4.29,1.06-1.96,0-3.49-.44-4.55-1.3-.98-.8-1.58-1.97-1.78-3.49-.04-.3-.29-.51-.59-.51h-3.77c-.05,0-.11.02-.14.06-.04.04-.06.09-.06.15.05,3,.99,5.34,2.79,6.94,1.8,1.59,4.4,2.4,7.73,2.4s6.1-.76,8.01-2.26c1.92-1.51,2.9-3.66,2.9-6.38,0-2.08-.58-3.7-1.73-4.83"/><path class="cls-1" d="m110.18,15.5c-.17-.04-.33-.06-.5-.07-.15,0-.4-.01-.75-.01-1.85,0-3.43.46-4.71,1.37-1.05.75-1.93,1.82-2.62,3.19v-3.79c0-.12-.1-.21-.21-.21h-4.43c-.12,0-.22.09-.22.21v26.07c0,.48.39.86.88.86h3.91c.12,0,.21-.1.21-.21v-14.87c0-2.43.62-4.3,1.86-5.55,1.23-1.26,3.05-1.89,5.42-1.89.3,0,.52,0,.67.01.14,0,.27.02.39.04.06,0,.12,0,.17-.05.05-.04.07-.1.07-.16v-4.73c0-.1-.07-.18-.16-.21"/><path class="cls-1" d="m138.02,32.73s-.09-.06-.15-.06h-3.72c-.32,0-.6.23-.66.54-.31,1.74-1.02,3.1-2.11,4.03-1.16,1-2.74,1.51-4.69,1.51-2.15,0-3.84-.82-5.01-2.45-1.19-1.65-1.79-4.04-1.79-7.11s.63-5.43,1.86-7.06c1.22-1.62,2.98-2.43,5.23-2.43,1.92,0,3.45.46,4.55,1.38,1.04.87,1.64,2.1,1.81,3.67.03.24.26.44.5.44h3.99c.05,0,.11-.02.15-.06.04-.04.06-.09.06-.15-.13-2.92-1.2-5.27-3.17-6.98-1.97-1.71-4.62-2.58-7.88-2.58-3.7,0-6.65,1.25-8.77,3.72-2.11,2.46-3.18,5.9-3.18,10.22s1.03,7.6,3.05,10.04c2.03,2.45,4.87,3.69,8.43,3.69s6.15-.91,8.18-2.69c2.03-1.79,3.17-4.31,3.4-7.49,0-.06-.02-.11-.05-.15"/><path class="cls-1" d="m149.29,26.72c.23-2.28.92-4.04,2.07-5.24,1.17-1.23,2.81-1.85,4.86-1.85s3.79.63,4.95,1.89c1.12,1.22,1.71,2.97,1.76,5.2h-13.64Zm15.47-7.86c-2.05-2.3-4.98-3.46-8.7-3.46s-6.53,1.26-8.6,3.76c-2.06,2.48-3.11,5.97-3.11,10.37,0,4.16,1.06,7.5,3.14,9.92,2.09,2.43,4.97,3.66,8.58,3.66,3.06,0,5.64-.84,7.67-2.48,2.02-1.65,3.29-3.94,3.76-6.8.01-.06,0-.12-.05-.16-.04-.05-.1-.07-.15-.07h-3.94c-.27,0-.52.19-.58.45-.35,1.46-1.05,2.62-2.07,3.43-1.1.87-2.51,1.31-4.21,1.31-2.22,0-3.98-.72-5.23-2.15-1.22-1.39-1.88-3.39-1.95-5.92h18.27c.1,0,.19-.07.2-.17.03-.25.05-.5.06-.76,0-.26.01-.65.01-1.18,0-4.16-1.04-7.43-3.08-9.72"/><path class="cls-1" d="m52.69,11.16c2.26,5.9,3.46,13.93-.14,19.6-3.97,5.21-10.64,6.05-17,6.56-1.29-1.29.69-2.31,1.06-3.27,2.49-3.46,4.98-7.75,3.74-11.9-1.06-2.35-3.51-3.18-5.86-3.32-1.34-.05-2.4.46-3.32,1.48-1.34,1.52-1.15,3.77-1.71,5.61-.97-.28-1.94-.65-2.81-1.2.32-1.66.18-3.5-.92-4.8-1.8-1.06-4.33-1.89-6.36-.78-3.09,2.3-4.01,6.13-3.32,10.1.65,6.82,9.46,7.66,11.4,13.61-1.02.88-1.81-.75-2.78-1.02-5.16-3.46-11.34-7.15-11.53-14.2-.41-2.9-.65-6.2,1.2-8.55,2.72-2.95,6.59-4.47,10.6-3.18,1.61.74,3.09,1.73,3.87,3.39.83-.37,1.61-1.51,2.49-2.02,2.21-1.52,6.09-1.8,8.39-.28,1.98,1.24,3.68,3.54,4.33,5.85.14,5.03-3.73,8.49-6.08,12.5,3.5.05,6.64-.91,9.6-2.52,5.26-3.27,4.68-10.17,3.94-15.47-1.61-5.95-6.68-12.02-12.86-13.5-10.88-2.86-23.16-.18-30.4,8.95-5.44,6.09-6.61,15.99-4.07,23.83,2.31,8.48,10.42,15.75,19.09,17.5,8.48,2.07,16.55-.78,22.73-6.27l.51,1.2c-7.38,6.27-18.17,9.73-27.71,6.27l-5.35-2.4C4.39,46.33-1.38,36.72.28,24.96,1.71,15.69,6.91,5.35,16.41,2.31c12.22-3.92,29.18-3.96,36.28,8.86"/><path class="cls-2" d="m40.67,24.01c-.47-.1-1.96-.39-2.87-.02-3.34,1.58-6.49,4.21-9.87,6.01-.88.42-1.74,2.01-2.95,1.18.12-.46,1-.99,1.65-1.32,3.55-3.5,8.8-5.95,11.97-9.81-1.17-.81-2.67-1.16-4.12-1.25-1.34-.05-2.44.48-3.36,1.49-1.34,1.52-1.13,3.73-1.68,5.57-.97-.28-1.91-.61-2.78-1.16.32-1.66.18-3.51-.93-4.8-1.8-1.06-4.35-1.9-6.38-.8-3.09,2.31-4.02,6.16-3.33,10.13.04.42.09.82.19,1.2,1.82-.12,3.72-1.1,5.65-1.3.14.11.12.43,0,.69-1.07,1.61-1.85,3.09-3.06,4.61,1.42,1.32,3.18,2.38,4.76,3.59.05-.15.14-.3.25-.39,4.68-3.89,9.12-7.93,13.9-10.32.86-.43,1.75.22,2.2.99.53-1.4.83-2.86.76-4.31"/><path class="cls-2" d="m38.79,30.06c-.7.29-1.38,1.78-2.36,2.01-3.64,2.61-7.45,5.04-10.18,8.55.11.15.22.3.33.46.63-.51,1.81-.79,2.12-1.68,1.44-1.25,2.68-2.38,4.4-3.3,1.48-.05,2.41-1.92,3.65-2.24.91-1.27,1.81-2.66,2.52-4.1-.13.12-.29.23-.47.31"/></svg>