<?xml version="1.0" encoding="UTF-8"?><svg id="Layer_1" xmlns="http://www.w3.org/2000/svg" viewBox="0 0 160.78 70.11"><defs><style>.cls-1{fill:#231f20;}.cls-1,.cls-2{stroke-width:0px;}.cls-2{fill:#d71635;}</style></defs><path class="cls-2" d="m38.28,27.21s0,0,0-.01c0,0,0,0,0,.01h.01Z"/><path class="cls-1" d="m83.73,28.36c-1.09-1.07-3.09-1.96-5.96-2.64l-4.01-.94c-1.45-.33-2.45-.71-2.97-1.14-.5-.42-.75-.98-.75-1.72,0-1.06.4-1.84,1.21-2.39.83-.56,2.08-.84,3.7-.84s2.92.35,3.86,1.03c.81.59,1.29,1.38,1.46,2.4.06.37.44.66.81.66h3.44c.11,0,.2-.09.2-.2v-.09c0-2.35-.9-4.25-2.67-5.64-1.76-1.38-4.15-2.09-7.11-2.09s-5.21.66-6.89,1.96c-1.69,1.31-2.55,3.1-2.55,5.33,0,1.96.53,3.49,1.59,4.56,1.04,1.05,2.9,1.91,5.53,2.55l4.63,1.2c1.43.34,2.4.75,2.89,1.2.47.44.7,1.1.7,1.94,0,1.15-.48,2.04-1.46,2.7-.99.67-2.37,1.01-4.11,1.01-1.88,0-3.35-.42-4.36-1.24-.94-.77-1.51-1.89-1.7-3.35-.04-.28-.28-.49-.57-.49h-3.62c-.05,0-.1.02-.14.06-.04.04-.06.09-.06.14.05,2.88.95,5.11,2.67,6.64,1.72,1.53,4.22,2.3,7.41,2.3s5.85-.73,7.67-2.17c1.84-1.45,2.78-3.51,2.78-6.11,0-1.99-.56-3.55-1.66-4.63"/><path class="cls-1" d="m105.55,14.84c-.16-.03-.32-.06-.48-.06-.15,0-.39-.01-.72-.01-1.77,0-3.29.44-4.51,1.31-1,.72-1.84,1.74-2.51,3.06v-3.63c0-.11-.09-.2-.21-.2h-4.24c-.11,0-.21.09-.21.2v24.97c0,.46.38.83.84.83h3.75c.11,0,.21-.09.21-.2v-14.24c0-2.33.6-4.12,1.78-5.32,1.18-1.2,2.92-1.81,5.19-1.81.29,0,.5,0,.64.01.14,0,.26.02.37.03.06,0,.12,0,.16-.05.05-.04.07-.1.07-.15v-4.53c0-.09-.06-.18-.16-.2"/><path class="cls-1" d="m132.22,31.36s-.09-.06-.14-.06h-3.56c-.31,0-.57.22-.63.52-.3,1.67-.98,2.97-2.02,3.86-1.11.96-2.62,1.44-4.49,1.44-2.06,0-3.68-.79-4.81-2.35-1.14-1.58-1.72-3.87-1.72-6.81s.6-5.2,1.78-6.76c1.17-1.55,2.86-2.33,5.01-2.33,1.84,0,3.3.44,4.36,1.32.99.83,1.57,2.01,1.73,3.52.02.23.24.42.48.42h3.82c.05,0,.1-.02.14-.06.04-.04.06-.09.05-.14-.12-2.8-1.15-5.04-3.04-6.69-1.89-1.64-4.42-2.47-7.55-2.47-3.54,0-6.37,1.2-8.4,3.56-2.02,2.36-3.05,5.65-3.05,9.79s.98,7.28,2.92,9.61c1.95,2.34,4.66,3.53,8.07,3.53s5.89-.87,7.83-2.58c1.94-1.72,3.04-4.13,3.25-7.18,0-.05-.01-.11-.05-.15"/><path class="cls-1" d="m143.01,25.6c.22-2.18.88-3.87,1.98-5.02,1.12-1.18,2.69-1.78,4.66-1.78s3.64.61,4.74,1.81c1.07,1.17,1.64,2.85,1.69,4.99h-13.06Zm14.82-7.53c-1.96-2.2-4.77-3.32-8.34-3.32s-6.25,1.21-8.24,3.6c-1.98,2.38-2.98,5.72-2.98,9.93,0,3.99,1.01,7.18,3,9.5,2,2.33,4.77,3.5,8.22,3.5,2.94,0,5.41-.8,7.34-2.38,1.94-1.58,3.15-3.77,3.6-6.51,0-.06,0-.11-.04-.16-.04-.04-.09-.07-.15-.07h-3.78c-.26,0-.5.18-.56.43-.33,1.4-1,2.51-1.99,3.29-1.05.83-2.41,1.25-4.04,1.25-2.13,0-3.82-.69-5.01-2.06-1.17-1.34-1.8-3.24-1.87-5.68h17.5c.1,0,.18-.07.19-.17.03-.24.05-.48.06-.73,0-.25.01-.62.01-1.13,0-3.99-.99-7.12-2.95-9.31"/><path class="cls-1" d="m50.47,10.69c2.16,5.65,3.31,13.34-.13,18.78-3.8,4.99-10.19,5.79-16.28,6.28-1.24-1.24.66-2.21,1.02-3.14,2.38-3.31,4.77-7.43,3.58-11.4-1.02-2.25-3.36-3.05-5.61-3.18-1.28-.04-2.3.44-3.18,1.41-1.28,1.46-1.11,3.61-1.63,5.38-.93-.27-1.86-.62-2.69-1.15.31-1.59.18-3.36-.88-4.59-1.72-1.02-4.15-1.81-6.09-.75-2.96,2.21-3.84,5.87-3.18,9.67.62,6.54,9.07,7.34,10.92,13.04-.97.84-1.74-.72-2.66-.98-4.95-3.31-10.87-6.85-11.04-13.6-.4-2.78-.62-5.94,1.15-8.19,2.61-2.83,6.32-4.28,10.16-3.05,1.55.71,2.96,1.65,3.71,3.24.79-.35,1.55-1.45,2.38-1.93,2.12-1.46,5.83-1.72,8.04-.27,1.9,1.19,3.53,3.39,4.15,5.61.13,4.81-3.57,8.13-5.82,11.97,3.36.04,6.36-.87,9.19-2.41,5.04-3.14,4.49-9.74,3.78-14.82-1.55-5.7-6.4-11.52-12.32-12.93-10.42-2.74-22.19-.17-29.12,8.57-5.21,5.83-6.33,15.32-3.9,22.82,2.21,8.13,9.98,15.09,18.29,16.76,8.13,1.99,15.86-.75,21.77-6.01l.49,1.15c-7.07,6.01-17.4,9.32-26.54,6.01l-5.12-2.3C4.2,44.39-1.32,35.18.27,23.91,1.64,15.03,6.62,5.13,15.72,2.21c11.7-3.75,27.95-3.8,34.75,8.48"/><path class="cls-2" d="m38.96,23c-.45-.1-1.88-.37-2.75-.02-3.2,1.51-6.22,4.03-9.46,5.76-.84.4-1.67,1.93-2.82,1.13.11-.44.96-.95,1.58-1.26,3.4-3.36,8.43-5.7,11.47-9.4-1.12-.77-2.56-1.11-3.95-1.2-1.28-.04-2.34.46-3.22,1.43-1.28,1.46-1.08,3.57-1.61,5.34-.93-.26-1.83-.58-2.67-1.11.31-1.59.17-3.36-.89-4.6-1.72-1.02-4.17-1.82-6.11-.76-2.96,2.21-3.85,5.9-3.19,9.7.04.4.09.79.18,1.15,1.74-.12,3.56-1.05,5.41-1.24.14.11.11.42,0,.67-1.03,1.54-1.77,2.96-2.94,4.42,1.36,1.26,3.05,2.28,4.56,3.44.05-.15.13-.28.24-.37,4.48-3.73,8.74-7.6,13.32-9.89.83-.41,1.68.21,2.11.95.51-1.34.8-2.74.73-4.13"/><path class="cls-2" d="m37.16,28.79c-.67.28-1.32,1.7-2.26,1.92-3.49,2.5-7.14,4.83-9.75,8.19.11.14.21.29.31.44.6-.49,1.73-.76,2.03-1.61,1.38-1.2,2.57-2.28,4.21-3.16,1.42-.04,2.31-1.84,3.5-2.15.87-1.22,1.73-2.55,2.41-3.93-.12.11-.28.22-.45.29"/><path class="cls-1" d="m158.24,69.98h.69v-1.86c0-1.07.4-1.69,1.51-1.69v-.73c-.74-.02-1.21.3-1.54.98h-.02v-.88h-.65v4.18Zm-1.73-1.45c0,.39-.37.95-1.28.95-.42,0-.81-.16-.81-.62,0-1.03,1.55-.64,2.09-1.03v.7Zm1.11.91c-.07.03-.15.04-.21.04-.22,0-.22-.15-.22-.47v-2.15c0-.98-.82-1.15-1.57-1.15-.94,0-1.73.36-1.77,1.4h.69c.03-.61.46-.79,1.04-.79.43,0,.93.09.93.69,0,.53-.66.46-1.41.61-.71.13-1.41.34-1.41,1.29,0,.84.62,1.17,1.38,1.17.58,0,1.09-.19,1.47-.65,0,.45.23.65.58.65.2,0,.37-.04.49-.11v-.53Zm-5.3-4.88h-.69v1.25h-.71v.61h.71v2.66c0,.77.28.91.99.91h.53v-.6h-.31c-.43,0-.52-.05-.52-.37v-2.6h.83v-.61h-.83v-1.25Zm-5.45,5.43h.69v-2.36c0-.75.4-1.31,1.24-1.31.53,0,.85.32.85.84v2.83h.69v-2.75c0-.9-.34-1.53-1.44-1.53-.61,0-1.07.24-1.36.76h-.02v-.66h-.65v4.18Zm-1.45-1.32c-.12.55-.51.82-1.08.82-.91,0-1.33-.65-1.3-1.38h3.13c.04-1.01-.41-2.39-1.89-2.39-1.14,0-1.96.91-1.96,2.17.04,1.27.67,2.2,2.01,2.2.95,0,1.6-.49,1.79-1.42h-.68Zm-2.39-1.16c.04-.65.49-1.18,1.2-1.18s1.16.53,1.2,1.18h-2.4Zm-1.29-.35c-.11-.99-.85-1.44-1.8-1.44-1.32,0-1.97.99-1.97,2.24s.68,2.13,1.95,2.13c1.06,0,1.69-.6,1.84-1.62h-.7c-.09.64-.48,1.02-1.15,1.02-.87,0-1.22-.75-1.22-1.53,0-.84.31-1.63,1.3-1.63.57,0,.93.31,1.03.83h.71Zm-7.55,2.84h.69v-4.18h-.69v4.18Zm.69-5.77h-.69v.84h.69v-.84Zm-4.88,5.77h.69v-1.58l.65-.6,1.43,2.18h.87l-1.78-2.66,1.66-1.52h-.92l-1.91,1.83v-3.42h-.69v5.77Zm-4.35-1.32c.04,1.03.83,1.41,1.77,1.41.85,0,1.78-.31,1.78-1.32,0-.8-.68-1.03-1.37-1.19-.64-.15-1.37-.24-1.37-.73,0-.42.48-.53.89-.53.44,0,.93.17.97.7h.69c-.06-1.02-.78-1.31-1.71-1.31-.74,0-1.56.35-1.56,1.19,0,1.61,2.73.88,2.73,1.96,0,.53-.58.62-1.01.62-.56,0-1.1-.19-1.12-.81h-.69Zm-4.23,1.32h.69v-2.36c0-.75.4-1.31,1.24-1.31.53,0,.85.32.85.84v2.83h.69v-2.75c0-.9-.34-1.53-1.44-1.53-.61,0-1.07.24-1.36.76h-.02v-.66h-.65v4.18Zm-1.03-4.18h-.69v2.36c0,.75-.4,1.31-1.24,1.31-.53,0-.85-.32-.85-.84v-2.83h-.69v2.75c0,.9.34,1.53,1.44,1.53.61,0,1.07-.24,1.36-.76h.02v.66h.65v-4.18Zm-4.87-1.74h-.62l-.57.78-.56-.78h-.68l.84,1.16h.75l.83-1.16Zm.62,3.08c-.11-.99-.85-1.44-1.8-1.44-1.32,0-1.97.99-1.97,2.24s.68,2.13,1.95,2.13c1.06,0,1.69-.6,1.84-1.62h-.7c-.09.64-.48,1.02-1.15,1.02-.87,0-1.22-.75-1.22-1.53,0-.84.31-1.63,1.3-1.63.57,0,.93.31,1.03.83h.71Zm-5.3,1.38c0,.39-.37.95-1.28.95-.42,0-.81-.16-.81-.62,0-1.03,1.55-.64,2.09-1.03v.7Zm1.11.91c-.07.03-.15.04-.21.04-.22,0-.22-.15-.22-.47v-2.15c0-.98-.82-1.15-1.57-1.15-.94,0-1.73.36-1.77,1.4h.69c.03-.61.46-.79,1.04-.79.43,0,.93.09.93.69,0,.53-.66.46-1.41.61-.71.13-1.41.34-1.41,1.29,0,.84.62,1.17,1.38,1.17.58,0,1.09-.19,1.47-.65,0,.45.22.65.58.65.2,0,.37-.04.49-.11v-.53Zm-6.42.55h.69v-1.86c0-1.07.4-1.69,1.51-1.69v-.73c-.74-.02-1.21.3-1.54.98h-.02v-.88h-.65v4.18Zm-3.98,0h.69v-4.18h-.69v4.18Zm.69-5.77h-.69v.84h.69v-.84Zm-5.22,5.77h.69v-2.36c0-.75.4-1.31,1.24-1.31.53,0,.85.32.85.84v2.83h.69v-2.75c0-.9-.34-1.53-1.44-1.53-.61,0-1.07.24-1.36.76h-.02v-.66h-.65v4.18Zm-1.3-5.92h-.62l-.57.78-.56-.78h-.68l.84,1.16h.75l.83-1.16Zm-3.01,4.6c.04,1.03.83,1.41,1.77,1.41.85,0,1.78-.31,1.78-1.32,0-.8-.68-1.03-1.37-1.19-.64-.15-1.37-.24-1.37-.73,0-.42.48-.53.89-.53.44,0,.93.17.97.7h.69c-.06-1.02-.78-1.31-1.71-1.31-.74,0-1.56.35-1.56,1.19,0,1.61,2.73.88,2.73,1.96,0,.53-.58.62-1.01.62-.56,0-1.1-.19-1.12-.81h-.69Zm-1.49,1.32h.69v-4.18h-.69v4.18Zm.69-5.77h-.69v.84h.69v-.84Zm-2.48,5.77h.69v-5.77h-.69v5.77Zm-1.79,0h.69v-4.18h-.69v4.18Zm.69-5.77h-.69v.84h.69v-.84Zm-2.14-.15h-.62l-.57.78-.56-.78h-.68l.84,1.16h.75l.83-1.16Zm.62,3.08c-.11-.99-.85-1.44-1.8-1.44-1.32,0-1.97.99-1.97,2.24s.68,2.13,1.95,2.13c1.06,0,1.69-.6,1.84-1.62h-.7c-.09.64-.48,1.02-1.15,1.02-.87,0-1.22-.75-1.22-1.53,0-.84.31-1.63,1.3-1.63.57,0,.93.31,1.03.83h.71Zm-4.58-1.34h-.69v2.36c0,.75-.4,1.31-1.24,1.31-.53,0-.85-.32-.85-.84v-2.83h-.69v2.75c0,.9.34,1.53,1.44,1.53.61,0,1.07-.24,1.36-.76h.02v.66h.65v-4.18Zm-4.91,2.85c-.12.55-.51.82-1.08.82-.91,0-1.33-.65-1.3-1.38h3.13c.04-1.01-.41-2.39-1.89-2.39-1.14,0-1.96.91-1.96,2.17.04,1.27.67,2.2,2.01,2.2.95,0,1.6-.49,1.79-1.42h-.68Zm-2.39-1.16c.04-.65.49-1.18,1.2-1.18s1.16.53,1.2,1.18h-2.4Zm-1.13-1.69h-.72l-1.14,3.48h-.02l-1.17-3.48h-.77l1.55,4.18h.74l1.53-4.18Zm-4.47.1c-.04-1.27-.94-1.83-2.13-1.83-1.06,0-2.09.53-2.09,1.69,0,2.12,3.69,1.08,3.69,2.66,0,.83-.77,1.05-1.46,1.05-.87,0-1.68-.42-1.68-1.39h-.73c0,1.4,1.09,2.04,2.38,2.04,1.05,0,2.26-.49,2.26-1.72,0-2.27-3.7-1.27-3.7-2.69,0-.75.64-.99,1.29-.99.8,0,1.34.35,1.43,1.18h.73Z"/><path class="cls-1" d="m142.1,56.1h-.69v2.36c0,.75-.4,1.31-1.24,1.31-.53,0-.85-.32-.85-.84v-2.83h-.69v2.75c0,.9.34,1.53,1.44,1.53.61,0,1.07-.24,1.36-.76h.02v.66h.65v-4.18Zm-4.99,2.05c0,.82-.31,1.62-1.25,1.62s-1.32-.77-1.32-1.59.35-1.58,1.28-1.58,1.29.76,1.29,1.54Zm-3.23,2.13h.69v-.56h.02c.3.49.93.65,1.35.65,1.28,0,1.91-.98,1.91-2.17s-.64-2.2-1.92-2.2c-.58,0-1.11.2-1.34.66h-.02v-2.16h-.69v5.77Zm-1.48-1.32c-.12.55-.51.82-1.08.82-.91,0-1.33-.65-1.3-1.38h3.13c.04-1.01-.41-2.39-1.89-2.39-1.14,0-1.96.91-1.96,2.17.04,1.27.67,2.2,2.01,2.2.95,0,1.6-.49,1.79-1.42h-.68Zm-2.39-1.16c.04-.65.49-1.18,1.2-1.18s1.16.53,1.21,1.18h-2.4Zm-3.22,2.49h.69v-1.86c0-1.07.4-1.69,1.51-1.69v-.73c-.74-.02-1.2.3-1.54.98h-.02v-.88h-.65v4.18Zm-2.93-.56c-.91,0-1.18-.84-1.18-1.59,0-.8.36-1.52,1.24-1.52s1.19.76,1.19,1.5c0,.78-.34,1.62-1.25,1.62m1.92-3.62h-.65v.6h0c-.25-.46-.72-.69-1.25-.69-1.46,0-1.93,1.22-1.93,2.21,0,1.14.62,2.12,1.87,2.12.53,0,1.07-.25,1.3-.76h.02v.28c0,.94-.36,1.58-1.25,1.58-.44,0-1.06-.19-1.08-.68h-.69c.04.91.94,1.23,1.73,1.23,1.33,0,1.94-.69,1.94-2.05v-3.82Zm-5.36,2.73c0,.39-.37.95-1.28.95-.42,0-.81-.16-.81-.62,0-1.03,1.55-.64,2.09-1.03v.7Zm1.11.91c-.07.03-.15.04-.21.04-.22,0-.22-.15-.22-.47v-2.15c0-.98-.82-1.15-1.57-1.15-.94,0-1.73.36-1.77,1.4h.69c.03-.61.46-.79,1.04-.79.43,0,.93.09.93.69,0,.53-.66.46-1.41.61-.71.13-1.41.34-1.41,1.29,0,.84.62,1.17,1.38,1.17.58,0,1.09-.19,1.47-.65,0,.45.23.65.58.65.2,0,.37-.04.49-.11v-.53Zm-8.98.55h4.59v-.65h-3.68l3.58-4.48v-.65h-4.22v.65h3.31l-3.59,4.48v.65Zm-2.94-4.18h-.69v2.36c0,.75-.4,1.31-1.24,1.31-.53,0-.85-.32-.85-.84v-2.83h-.69v2.75c0,.9.34,1.53,1.44,1.53.61,0,1.07-.24,1.36-.76h.02v.66h.65v-4.18Zm-7.16,2.85c-.12.55-.51.82-1.08.82-.91,0-1.33-.65-1.3-1.38h3.13c.04-1.01-.41-2.39-1.89-2.39-1.14,0-1.96.91-1.96,2.17.04,1.27.67,2.2,2,2.2.95,0,1.6-.49,1.79-1.42h-.68Zm-2.38-1.16c.04-.65.48-1.18,1.2-1.18s1.16.53,1.21,1.18h-2.4Zm-2.09-2.94h-.69v1.25h-.71v.61h.71v2.66c0,.77.28.91.99.91h.53v-.6h-.31c-.43,0-.52-.05-.52-.37v-2.6h.83v-.61h-.83v-1.25Zm-2.26-.49h-.62l-.57.78-.56-.78h-.68l.84,1.16h.75l.83-1.16Zm-3.01,4.6c.04,1.03.83,1.41,1.77,1.41.85,0,1.78-.31,1.78-1.32,0-.8-.68-1.03-1.37-1.19-.64-.15-1.37-.24-1.37-.73,0-.42.48-.53.89-.53.44,0,.93.17.97.7h.69c-.06-1.02-.78-1.31-1.71-1.31-.74,0-1.56.35-1.56,1.19,0,1.61,2.73.88,2.73,1.96,0,.53-.58.62-1.01.62-.56,0-1.1-.19-1.12-.81h-.69Zm-1.49,1.32h.69v-4.18h-.69v4.18Zm.69-5.77h-.69v.84h.69v-.84Zm-2.48,5.77h.69v-5.77h-.69v5.77Zm-1.79,0h.69v-4.18h-.69v4.18Zm.69-5.77h-.69v.84h.69v-.84Zm-2.14-.15h-.62l-.57.78-.56-.78h-.68l.84,1.16h.75l.83-1.16Zm.62,3.08c-.11-.99-.85-1.44-1.8-1.44-1.32,0-1.97.99-1.97,2.24s.68,2.13,1.95,2.13c1.06,0,1.69-.6,1.84-1.62h-.7c-.09.64-.48,1.02-1.15,1.02-.87,0-1.22-.75-1.22-1.53,0-.84.31-1.63,1.3-1.63.57,0,.93.31,1.03.83h.71Zm-4.58-1.34h-.69v2.36c0,.75-.4,1.31-1.24,1.31-.53,0-.85-.32-.85-.84v-2.83h-.69v2.75c0,.9.34,1.53,1.44,1.53.61,0,1.07-.24,1.36-.76h.02v.66h.65v-4.18Zm-4.91,2.85c-.12.55-.51.82-1.08.82-.91,0-1.33-.65-1.3-1.38h3.13c.04-1.01-.41-2.39-1.89-2.39-1.14,0-1.96.91-1.96,2.17.04,1.27.67,2.2,2.01,2.2.95,0,1.6-.49,1.79-1.42h-.68Zm-2.39-1.16c.04-.65.49-1.18,1.2-1.18s1.16.53,1.2,1.18h-2.4Zm-1.13-1.69h-.72l-1.14,3.48h-.02l-1.17-3.48h-.77l1.55,4.18h.74l1.53-4.18Zm-4.47.1c-.04-1.27-.94-1.83-2.13-1.83-1.06,0-2.09.53-2.09,1.69,0,2.12,3.69,1.08,3.69,2.66,0,.83-.77,1.05-1.46,1.05-.87,0-1.68-.42-1.68-1.39h-.73c0,1.4,1.09,2.04,2.38,2.04,1.05,0,2.26-.49,2.26-1.72,0-2.27-3.7-1.27-3.7-2.69,0-.75.64-.99,1.29-.99.8,0,1.34.35,1.43,1.18h.73Z"/></svg>