<?xml version="1.0" encoding="UTF-8"?>
<svg id="Layer_1" xmlns="http://www.w3.org/2000/svg" version="1.1" viewBox="0 0 133.3 85">
  <!-- Generator: Adobe Illustrator 29.1.0, SVG Export Plug-In . SVG Version: 2.1.0 Build 142)  -->
  <defs>
    <style>
      .st0 {
        fill: none;
        stroke: #d51f36;
        stroke-miterlimit: 10;
        stroke-width: 1.7px;
      }

      .st1 {
        fill: #fff;
      }

      .st2 {
        fill: #d51f36;
      }

      .st3 {
        fill: #d5202a;
      }
    </style>
  </defs>
  <rect class="st0" x="1.9" y="1.4" width="129.5" height="82.2" rx="7.2" ry="7.2"/>
  <path class="st3" d="M66.6,50.9c9.2,0,16.7-7.2,16.7-16.2s-7.5-16.2-16.7-16.2-16.7,7.2-16.7,16.2v.6c.4,8.6,7.7,15.5,16.7,15.5"/>
  <polyline class="st3" points="66.4 66.4 80.9 43.1 52 42.5"/>
  <path class="st1" d="M66.6,45.5c6,0,10.9-4.8,10.9-10.7s-4.9-10.7-10.9-10.7-10.9,4.8-10.9,10.7,4.9,10.7,10.9,10.7"/>
  <path class="st2" d="M66.6,38.8c2.2,0,4-1.8,4-4s-1.8-4-4-4-4.1,1.8-4.1,4,1.8,4,4.1,4"/>
</svg>