<?xml version="1.0" encoding="UTF-8"?>
<svg id="Layer_1" xmlns="http://www.w3.org/2000/svg" version="1.1" viewBox="0 0 133.3 85">
  <!-- Generator: Adobe Illustrator 29.1.0, SVG Export Plug-In . SVG Version: 2.1.0 Build 142)  -->
  <defs>
    <style>
      .st0 {
        stroke-width: 1.7px;
      }

      .st0, .st1, .st2 {
        fill: none;
        stroke: #d51f36;
        stroke-miterlimit: 10;
      }

      .st3 {
        fill: #fff;
      }

      .st4 {
        fill: #d51f36;
      }

      .st1 {
        stroke-width: 4.5px;
      }

      .st1, .st2 {
        stroke-linecap: round;
      }

      .st2 {
        stroke-width: 3.7px;
      }
    </style>
  </defs>
  <rect class="st0" x="1.9" y="1.4" width="129.5" height="82.2" rx="7.2" ry="7.2"/>
  <g>
    <path class="st4" d="M65.9,19.3l-24.3,9.9c-1.6.6-1.1,2.7.7,2.7h48.7c1.8,0,2.3-2,.7-2.7l-24.3-9.9c-.4-.2-1-.2-1.4,0Z"/>
    <line class="st1" x1="43" y1="65.8" x2="90.7" y2="65.8"/>
    <path class="st4" d="M44.6,37v22c0,1.4,0,2.5.2,2.5h5.1c.1,0,.2-1.1.2-2.5v-22c0-1.4,0-2.5-.2-2.5h-5.1c-.1,0-.2,1.1-.2,2.5Z"/>
    <line class="st2" x1="44" y1="61.1" x2="50.8" y2="61.1"/>
    <line class="st2" x1="44" y1="34.5" x2="50.8" y2="34.5"/>
    <path class="st4" d="M57.6,37v22c0,1.4,0,2.5.2,2.5h5.1c.1,0,.2-1.1.2-2.5v-22c0-1.4,0-2.5-.2-2.5h-5.1c-.1,0-.2,1.1-.2,2.5Z"/>
    <line class="st2" x1="57" y1="61.1" x2="63.8" y2="61.1"/>
    <line class="st2" x1="57" y1="34.5" x2="63.8" y2="34.5"/>
    <path class="st4" d="M70.7,37v22c0,1.4,0,2.5.2,2.5h5.1c.1,0,.2-1.1.2-2.5v-22c0-1.4,0-2.5-.2-2.5h-5.1c-.1,0-.2,1.1-.2,2.5Z"/>
    <line class="st2" x1="70.1" y1="61.1" x2="76.8" y2="61.1"/>
    <line class="st2" x1="70.1" y1="34.5" x2="76.8" y2="34.5"/>
    <path class="st4" d="M83.7,37v22c0,1.4,0,2.5.2,2.5h5.1c.1,0,.2-1.1.2-2.5v-22c0-1.4,0-2.5-.2-2.5h-5.1c-.1,0-.2,1.1-.2,2.5Z"/>
    <line class="st2" x1="83.1" y1="61.1" x2="89.9" y2="61.1"/>
    <line class="st2" x1="83.1" y1="34.5" x2="89.9" y2="34.5"/>
    <circle class="st3" cx="66.6" cy="25.5" r="3"/>
  </g>
</svg>