<?xml version="1.0" encoding="UTF-8"?>
<svg id="Layer_1" xmlns="http://www.w3.org/2000/svg" version="1.1" viewBox="0 0 133.3 85">
  <!-- Generator: Adobe Illustrator 29.1.0, SVG Export Plug-In . SVG Version: 2.1.0 Build 142)  -->
  <defs>
    <style>
      .st0 {
        fill: #fff;
      }

      .st1 {
        stroke-width: 3.7px;
      }

      .st1, .st2, .st3 {
        fill: none;
        stroke: #d51f36;
        stroke-miterlimit: 10;
      }

      .st1, .st3 {
        stroke-linecap: round;
      }

      .st4 {
        fill: #d51f36;
      }

      .st2 {
        stroke-width: 1.7px;
      }

      .st3 {
        stroke-width: 4.5px;
      }
    </style>
  </defs>
  <rect class="st2" x="1.9" y="1.4" width="129.5" height="82.2" rx="7.2" ry="7.2"/>
  <g>
    <path class="st4" d="M50.3,19.3l-24.3,9.9c-1.6.6-1.1,2.7.7,2.7h48.7c1.8,0,2.3-2,.7-2.7l-24.3-9.9c-.4-.2-1-.2-1.4,0Z"/>
    <line class="st3" x1="27.5" y1="65.8" x2="75.1" y2="65.8"/>
    <path class="st4" d="M29,37v22c0,1.4,0,2.5.2,2.5h5.1c.1,0,.2-1.1.2-2.5v-22c0-1.4,0-2.5-.2-2.5h-5.1c-.1,0-.2,1.1-.2,2.5Z"/>
    <line class="st1" x1="28.4" y1="61.1" x2="35.2" y2="61.1"/>
    <line class="st1" x1="28.4" y1="34.5" x2="35.2" y2="34.5"/>
    <path class="st4" d="M42.1,37v22c0,1.4,0,2.5.2,2.5h5.1c.1,0,.2-1.1.2-2.5v-22c0-1.4,0-2.5-.2-2.5h-5.1c-.1,0-.2,1.1-.2,2.5Z"/>
    <line class="st1" x1="41.5" y1="61.1" x2="48.2" y2="61.1"/>
    <line class="st1" x1="41.5" y1="34.5" x2="48.2" y2="34.5"/>
    <path class="st4" d="M55.1,37v22c0,1.4,0,2.5.2,2.5h5.1c.1,0,.2-1.1.2-2.5v-22c0-1.4,0-2.5-.2-2.5h-5.1c-.1,0-.2,1.1-.2,2.5Z"/>
    <line class="st1" x1="54.5" y1="61.1" x2="61.3" y2="61.1"/>
    <line class="st1" x1="54.5" y1="34.5" x2="61.3" y2="34.5"/>
    <path class="st4" d="M68.1,37v22c0,1.4,0,2.5.2,2.5h5.1c.1,0,.2-1.1.2-2.5v-22c0-1.4,0-2.5-.2-2.5h-5.1c-.1,0-.2,1.1-.2,2.5Z"/>
    <line class="st1" x1="67.5" y1="61.1" x2="74.3" y2="61.1"/>
    <line class="st1" x1="67.5" y1="34.5" x2="74.3" y2="34.5"/>
    <circle class="st0" cx="51.1" cy="25.5" r="3"/>
  </g>
  <polygon class="st4" points="108.2 58.8 97.3 47.9 86.4 58.8 86.4 2.2 108.2 2.2 108.2 58.8"/>
</svg>