<?xml version="1.0" encoding="UTF-8"?>
<svg id="Layer_1" xmlns="http://www.w3.org/2000/svg" version="1.1" viewBox="0 0 133.3 85">
  <!-- Generator: Adobe Illustrator 29.1.0, SVG Export Plug-In . SVG Version: 2.1.0 Build 142)  -->
  <defs>
    <style>
      .st0 {
        stroke-width: 1.7px;
      }

      .st0, .st1, .st2, .st3 {
        stroke-miterlimit: 10;
      }

      .st0, .st1, .st3 {
        fill: none;
        stroke: #d51f36;
      }

      .st4 {
        fill: #fff;
      }

      .st5, .st2 {
        fill: #d51f36;
      }

      .st1 {
        stroke-width: 4.5px;
      }

      .st1, .st3 {
        stroke-linecap: round;
      }

      .st2 {
        stroke: #fff;
        stroke-width: 2.1px;
      }

      .st3 {
        stroke-width: 3.7px;
      }
    </style>
  </defs>
  <rect class="st0" x="1.9" y="1.4" width="129.5" height="82.2" rx="7.2" ry="7.2"/>
  <path class="st5" d="M106.2,41v22c0,1.4,0,2.5.2,2.5h5.1c.1,0,.2-1.1.2-2.5v-22c0-1.4,0-2.5-.2-2.5h-5.1c-.1,0-.2,1.1-.2,2.5Z"/>
  <line class="st3" x1="105.6" y1="65.2" x2="112.4" y2="65.2"/>
  <line class="st3" x1="105.6" y1="38.5" x2="112.4" y2="38.5"/>
  <line class="st3" x1="66.8" y1="65.2" x2="73.5" y2="65.2"/>
  <line class="st3" x1="79.8" y1="65.2" x2="86.5" y2="65.2"/>
  <line class="st3" x1="92.8" y1="65.2" x2="99.6" y2="65.2"/>
  <g>
    <line class="st1" x1="66.1" y1="69.1" x2="113.7" y2="69.1"/>
    <g>
      <path class="st5" d="M55.6,46.1c0-3.8-3.1-6.9-6.9-6.9h-24.5c-3.8,0-6.9,3.1-6.9,6.9v25.1h38.2v-25.1Z"/>
      <path class="st2" d="M36.5,13.8c-8,0-14.6,6.5-14.6,14.6s6.5,14.6,14.6,14.6,14.6-6.5,14.6-14.6-6.5-14.6-14.6-14.6Z"/>
      <path class="st5" d="M89.2,22.6l-24.3,9.9c-1.6.6-1.1,2.7.7,2.7h48.7c1.8,0,2.3-2,.7-2.7l-24.3-9.9c-.4-.2-1-.2-1.4,0Z"/>
      <path class="st5" d="M67.9,40.3v22c0,1.4,0,2.5.2,2.5h5.1c.1,0,.2-1.1.2-2.5v-22c0-1.4,0-2.5-.2-2.5h-5.1c-.1,0-.2,1.1-.2,2.5Z"/>
      <line class="st3" x1="67.3" y1="37.8" x2="74" y2="37.8"/>
      <path class="st5" d="M80.9,40.3v22c0,1.4,0,2.5.2,2.5h5.1c.1,0,.2-1.1.2-2.5v-22c0-1.4,0-2.5-.2-2.5h-5.1c-.1,0-.2,1.1-.2,2.5Z"/>
      <line class="st3" x1="80.3" y1="37.8" x2="87.1" y2="37.8"/>
      <path class="st5" d="M93.9,40.3v22c0,1.4,0,2.5.2,2.5h5.1c.1,0,.2-1.1.2-2.5v-22c0-1.4,0-2.5-.2-2.5h-5.1c-.1,0-.2,1.1-.2,2.5Z"/>
      <line class="st3" x1="93.3" y1="37.8" x2="100.1" y2="37.8"/>
      <circle class="st4" cx="89.9" cy="28.8" r="3"/>
    </g>
  </g>
</svg>