<?xml version="1.0" encoding="UTF-8"?>
<svg id="Layer_1" xmlns="http://www.w3.org/2000/svg" version="1.1" viewBox="0 0 133.3 85">
  <!-- Generator: Adobe Illustrator 29.1.0, SVG Export Plug-In . SVG Version: 2.1.0 Build 142)  -->
  <defs>
    <style>
      .st0, .st1 {
        stroke-width: 1.4px;
      }

      .st0, .st1, .st2 {
        stroke: #d51f36;
      }

      .st0, .st1, .st2, .st3 {
        stroke-miterlimit: 10;
      }

      .st0, .st2 {
        fill: none;
      }

      .st4, .st3 {
        fill: #d51f36;
      }

      .st1 {
        fill: #fff;
      }

      .st2 {
        stroke-width: 1.7px;
      }

      .st3 {
        stroke: #fff;
        stroke-width: 2.1px;
      }
    </style>
  </defs>
  <rect class="st2" x="1.9" y="1.4" width="129.5" height="82.2" rx="7.2" ry="7.2"/>
  <g>
    <path class="st4" d="M55.2,45.4c0-3.8-3.1-6.9-6.9-6.9h-24.5c-3.8,0-6.9,3.1-6.9,6.9v25.1h38.2v-25.1Z"/>
    <path class="st3" d="M36.1,13.1c-8,0-14.6,6.5-14.6,14.6s6.5,14.6,14.6,14.6,14.6-6.5,14.6-14.6-6.5-14.6-14.6-14.6Z"/>
    <path class="st1" d="M108.3,34.5c-3.8,0-7.4,1.4-10.1,3.7h0s-6.3,6.1-6.3,6.1l-6.3-6.1c-2.7-2.3-6.2-3.7-10.1-3.7-8.6,0-15.6,7-15.6,15.6s7,15.6,15.6,15.6,7.8-1.6,10.6-4.2h0s.4-.3.4-.3c0,0,0,0,0,0l5.4-5.3-5.9-5.7s-4.8,4.7-5.2,5.1l-.3.3c-1.3,1.2-3,1.9-4.9,1.9-4.1,0-7.4-3.3-7.4-7.4s3.3-7.4,7.4-7.4,3.4.6,4.7,1.7c.3.2.6.5.8.8l10.9,10.6,5.8,5.6h0c2.8,2.6,6.5,4.2,10.6,4.2,8.6,0,15.6-7,15.6-15.6s-7-15.6-15.6-15.6ZM108.3,57.4c-2.6,0-5.1-2.6-6.4-3.8l-3.8-3.6s5.4-5.6,6.1-6.1c1.2-.8,2.6-1.3,4.1-1.3,4.1,0,7.4,3.3,7.4,7.4s-3.3,7.3-7.4,7.4Z"/>
    <line class="st0" x1="91.9" y1="44.3" x2="98.1" y2="50"/>
  </g>
</svg>